<?xml version="1.0" encoding="utf-8" ?>
<svg xmlns="http://www.w3.org/2000/svg" xmlns:xlink="http://www.w3.org/1999/xlink" width="50" height="50">
	<defs>
		<clipPath id="clip_0">
			<rect x="-58" y="-73" width="8641" height="1024" clip-rule="evenodd"/>
		</clipPath>
	</defs>
	<g clip-path="url(#clip_0)">
		<path fill="rgb(173,173,173)" stroke="none" d="M0 25C0 11.1806 11.1806 0 25 0C38.8194 0 50 11.1806 50 25C50 38.8194 38.8194 50 25 50C11.1806 50 0 38.8194 0 25ZM33.2168 33.2168C33.7762 32.6573 33.7762 31.8182 33.2168 31.2587L26.5035 24.5455L33.2168 17.8322C33.7762 17.2727 33.7762 16.4336 33.2168 15.8741C32.6573 15.3147 31.8182 15.3147 31.2587 15.8741L24.5455 22.5874L17.8322 15.8741C17.2727 15.3147 16.4336 15.3147 15.8741 15.8741C15.3147 16.4336 15.3147 17.2727 15.8741 17.8322L22.5874 24.5455L15.8741 31.2587C15.3147 31.8182 15.3147 32.6573 15.8741 33.2168C16.1538 33.4965 16.5035 33.6364 16.8531 33.6364C17.2028 33.6364 17.5524 33.4965 17.8322 33.2168L24.5455 26.5035L31.2587 33.2168C31.5385 33.4965 31.8881 33.6364 32.2378 33.6364C32.5874 33.6364 32.9371 33.4965 33.2168 33.2168Z" fill-rule="evenodd"/>
	</g>

</svg>