<?xml version="1.0" encoding="UTF-8"?>
<svg width="86px" height="30px" viewBox="0 0 86 30" version="1.1" xmlns="http://www.w3.org/2000/svg" xmlns:xlink="http://www.w3.org/1999/xlink">
    <!-- Generator: Sketch 52.4 (67378) - http://www.bohemiancoding.com/sketch -->
    <title>RR</title>
    <desc>Created with Sketch.</desc>
    <defs>
        <polygon id="path-1" points="0.47546875 0.175567568 24.6871875 0.175567568 24.6871875 28.9997649 0.47546875 28.9997649"></polygon>
        <polygon id="path-3" points="0 0.175567568 23.9928 0.175567568 23.9928 28.9997649 0 28.9997649"></polygon>
        <polygon id="path-5" points="0.154797297 0.175567568 28.9329865 0.175567568 28.9329865 28.9541486 0.154797297 28.9541486"></polygon>
    </defs>
    <g id="Page-1" stroke="none" stroke-width="1" fill="none" fill-rule="evenodd">
        <g id="A-Copy-15" transform="translate(-1424.000000, -236.000000)">
            <g id="RR" transform="translate(1424.000000, 236.000000)">
                <g id="Group-3" transform="translate(27.000000, 0.500000)">
                    <mask id="mask-2" fill="white">
                        <use xlink:href="#path-1"></use>
                    </mask>
                    <g id="Clip-2"></g>
                    <path d="M17.3801562,15.2764946 L13.0590625,15.2764946 C10.3715625,15.2764946 8.779375,16.8550351 8.779375,19.3521703 C8.779375,21.8077649 10.4715625,23.4662514 13.079375,23.4662514 L17.3801562,23.4662514 L17.3801562,15.2764946 Z M17.3801562,0.175332432 L24.6871875,0.175332432 L24.6871875,28.9997649 L12.3426562,28.9997649 C5.17390625,28.9997649 1.3121875,25.4445216 1.3121875,19.4916838 C1.3121875,15.9560351 3.06375,12.7197919 6.20984375,11.3419 L0.47546875,0.175332432 L8.679375,0.175332432 L13.5965625,10.2634135 L17.3801562,10.2634135 L17.3801562,0.175332432 Z" id="Fill-1" fill="#FF5A00" mask="url(#mask-2)"></path>
                </g>
                <g id="Group-6" transform="translate(0.000000, 0.500000)">
                    <mask id="mask-4" fill="white">
                        <use xlink:href="#path-3"></use>
                    </mask>
                    <g id="Clip-5"></g>
                    <path d="M16.7509935,15.2764946 L12.4704774,15.2764946 C9.80570323,15.2764946 8.22789677,16.8550351 8.22789677,19.3521703 C8.22789677,21.8077649 9.90557419,23.4662514 12.4898323,23.4662514 L16.7509935,23.4662514 L16.7509935,15.2764946 Z M16.7509935,0.175332432 L23.9928,0.175332432 L23.9928,28.9997649 L11.7597677,28.9997649 C4.65576774,28.9997649 0.828154839,25.4445216 0.828154839,19.4916838 C0.828154839,15.9560351 2.56467097,12.7197919 5.68234839,11.3419 L-0.000232258065,0.175332432 L8.12957419,0.175332432 L13.0023484,10.2634135 L16.7509935,10.2634135 L16.7509935,0.175332432 Z" id="Fill-4" fill="#FF5A00" mask="url(#mask-4)"></path>
                </g>
                <g id="Group-9" transform="translate(57.000000, 0.500000)">
                    <mask id="mask-6" fill="white">
                        <use xlink:href="#path-5"></use>
                    </mask>
                    <g id="Clip-8"></g>
                    <path d="M28.9329865,14.5646622 C28.9329865,22.5114459 22.4902838,28.9541486 14.5442838,28.9541486 C6.5975,28.9541486 0.154797297,22.5114459 0.154797297,14.5646622 C0.154797297,6.61787838 6.5975,0.175175676 14.5442838,0.175175676 C22.4902838,0.175175676 28.9329865,6.61787838 28.9329865,14.5646622" id="Fill-7" fill="#FF5A00" mask="url(#mask-6)"></path>
                </g>
            </g>
        </g>
    </g>
</svg>