<?xml version="1.0" encoding="UTF-8"?>
<svg width="172px" height="48px" viewBox="0 0 172 48" version="1.1" xmlns="http://www.w3.org/2000/svg" xmlns:xlink="http://www.w3.org/1999/xlink">
    <!-- Generator: Sketch 52.4 (67378) - http://www.bohemiancoding.com/sketch -->
    <title>Group 2</title>
    <desc>Created with Sketch.</desc>
    <g id="Page-1" stroke="none" stroke-width="1" fill="none" fill-rule="evenodd">
        <g id="A-Copy-7" transform="translate(-1343.000000, -237.000000)" fill="#000000">
            <g id="Group-3" transform="translate(203.000000, 153.000000)">
                <g id="Group-2" transform="translate(1140.000000, 84.000000)">
                    <path d="M18.24,21.12 C18.24,23.5466788 17.3800086,25.5533254 15.66,27.14 C13.9399914,28.7266746 11.74668,29.52 9.08,29.52 C7.4533252,29.52 5.2133476,28.9733388 2.36,27.88 C2.1466656,27.7999996 1.9600008,27.76 1.8,27.76 C1.3466644,27.76 1.0000012,28.2399952 0.76,29.2 C0.6799996,29.4933348 0.573334,29.64 0.44,29.64 C0.2266656,29.64 0.12,29.4533352 0.12,29.08 C0.12,28.7333316 0.186666,28.1200044 0.32,27.24 C0.4266672,26.5199964 0.48,25.6800048 0.48,24.72 C0.48,23.9466628 0.4666668,23.3333356 0.44,22.88 C0.3866664,21.9733288 0.36,21.4400008 0.36,21.28 C0.36,20.8533312 0.493332,20.64 0.76,20.64 C1.026668,20.64 1.2666656,21.2133276 1.48,22.36 C1.8533352,24.3333432 2.6933268,25.8666612 4,26.96 C5.4133404,28.1333392 6.9333252,28.72 8.56,28.72 C10.0000072,28.72 11.2133284,28.2666712 12.2,27.36 C13.1866716,26.4533288 13.68,25.3466732 13.68,24.04 C13.68,22.9199944 13.3600032,22.02667 12.72,21.36 C12.2399976,20.8799976 10.6933464,19.9333404 8.08,18.52 C5.1733188,16.9733256 3.2000052,15.4266744 2.16,13.88 C1.1999952,12.4666596 0.72,10.7866764 0.72,8.84 C0.72,6.5466552 1.5333252,4.6466742 3.16,3.14 C4.7866748,1.6333258 6.8399876,0.88 9.32,0.88 C10.65334,0.88 12.0799924,1.1999968 13.6,1.84 C14.1066692,2.0533344 14.4666656,2.16 14.68,2.16 C15.080002,2.16 15.346666,1.8133368 15.48,1.12 C15.5333336,0.8799988 15.6533324,0.76 15.84,0.76 C16.106668,0.76 16.24,0.9333316 16.24,1.28 C16.24,1.413334 16.2133336,1.7866636 16.16,2.4 C16.1066664,3.0133364 16.08,3.519998 16.08,3.92 C16.08,5.3066736 16.1333328,6.4799952 16.24,7.44 C16.2666668,7.5200004 16.28,7.626666 16.28,7.76 C16.28,8.0000012 16.1733344,8.12 15.96,8.12 C15.7199988,8.12 15.4800012,7.6933376 15.24,6.84 C14.9999988,5.9866624 14.580003,5.1400042 13.98,4.3 C13.379997,3.4599958 12.7733364,2.8533352 12.16,2.48 C11.359996,1.9999976 10.426672,1.76 9.36,1.76 C7.8666592,1.76 6.6800044,2.1199964 5.8,2.84 C4.9199956,3.5600036 4.48,4.5466604 4.48,5.8 C4.48,6.8933388 4.8933292,7.8599958 5.72,8.7 C6.5466708,9.5400042 8.1333216,10.6133268 10.48,11.92 C13.3600144,13.520008 15.266662,14.7999952 16.2,15.76 C17.5600068,17.1733404 18.24,18.9599892 18.24,21.12 Z M35.4,2.64 L35.04,2.96 L33.48,4.36 L29.08,8.28 C28.5733308,8.7600024 28.253334,9 28.12,9 C28.0133328,9 27.96,8.9466672 27.96,8.84 C27.96,8.7599996 28.3866624,7.653344 29.24,5.52 L29.28,5.4 C29.5733348,4.6533296 29.919998,3.7333388 30.32,2.64 L35.4,2.64 Z M36.32,24.12 C36.32,24.7066696 35.9733368,25.4799952 35.28,26.44 C33.7866592,28.4933436 31.840012,29.52 29.44,29.52 C26.7466532,29.52 24.533342,28.6666752 22.8,26.96 C21.066658,25.2533248 20.2,23.06668 20.2,20.4 C20.2,17.7866536 21.0399916,15.6066754 22.72,13.86 C24.4000084,12.1133246 26.4933208,11.24 29,11.24 C30.7066752,11.24 32.159994,11.6133296 33.36,12.36 C34.69334,13.1866708 35.559998,14.3733256 35.96,15.92 C36.0666672,16.4000024 36.1466664,16.97333 36.2,17.64 C35.5866636,17.6933336 33.1200216,17.7333332 28.8,17.76 C28.13333,17.76 27.2933384,17.7866664 26.28,17.84 C26.1999996,18.8000048 26.16,19.61333 26.16,20.28 C26.16,23.4000156 26.8133268,25.6133268 28.12,26.92 C28.8933372,27.6933372 29.8399944,28.08 30.96,28.08 C31.893338,28.08 32.793329,27.7600032 33.66,27.12 C34.526671,26.4799968 35.1866644,25.6533384 35.64,24.64 C35.8533344,24.1333308 36.026666,23.88 36.16,23.88 C36.2666672,23.88 36.32,23.9599992 36.32,24.12 Z M31.28,17.16 C31.3066668,15.1066564 31.1600016,13.680004 30.84,12.88 C30.5199984,12.079996 29.960004,11.68 29.16,11.68 C27.5333252,11.68 26.6000012,13.5066484 26.36,17.16 C26.9200028,17.1333332 28.0933244,17.12 29.88,17.12 C30.413336,17.12 30.879998,17.1333332 31.28,17.16 Z M58.6,28.76 C58.6,28.9733344 58.26667,29.08 57.6,29.08 C57.5466664,29.08 57.2000032,29.0666668 56.56,29.04 C55.9199968,29.0133332 54.9866728,29 53.76,29 L52.48,29 L49.04,29.04 C48.6666648,29.04 48.48,28.9333344 48.48,28.72 C48.48,28.5333324 48.6399984,28.44 48.96,28.44 L49.28,28.44 C49.9733368,28.44 50.3799994,28.3533342 50.5,28.18 C50.6200006,28.0066658 50.68,27.4133384 50.68,26.4 L50.68,18.68 C50.68,15.8266524 50.4933352,14.1200028 50.12,13.56 C49.7999984,13.0799976 49.2266708,12.84 48.4,12.84 C47.5733292,12.84 46.893336,13.0933308 46.36,13.6 C45.826664,14.1066692 45.56,14.7466628 45.56,15.52 L45.6,27.64 C45.6533336,27.9600016 45.7666658,28.1666662 45.94,28.26 C46.1133342,28.3533338 46.5466632,28.4133332 47.24,28.44 C47.4533344,28.44 47.56,28.5199992 47.56,28.68 C47.56,28.8400008 47.4666676,28.9333332 47.28,28.96 C47.0933324,28.9866668 46.4266724,29 45.28,29 C44.1333276,29 43.1866704,29.0133332 42.44,29.04 C40.973326,29.0933336 39.4800076,29.12 37.96,29.12 C37.6399984,29.12 37.48,29.0266676 37.48,28.84 C37.48,28.6266656 37.8866626,28.52 38.7,28.52 C39.5133374,28.52 39.986666,28.3600016 40.12,28.04 L40.24,27.48 L40.24,18.28 C40.24,15.6933204 40.2133336,14.3466672 40.16,14.24 C40.0799996,13.839998 39.7200032,13.64 39.08,13.64 C38.7333316,13.64 38.426668,13.6533332 38.16,13.68 L37.72,13.68 C37.2933312,13.68 37.08,13.5866676 37.08,13.4 C37.08,13.2133324 37.2399984,13.1066668 37.56,13.08 C40.5466816,12.946666 42.9333244,12.3200056 44.72,11.2 C44.9333344,11.0933328 45.0799996,11.04 45.16,11.04 C45.3733344,11.04 45.48,11.2533312 45.48,11.68 C45.48,12.8533392 45.4666668,13.6133316 45.44,13.96 C46.8533404,12.1199908 48.6666556,11.2 50.88,11.2 C53.1733448,11.2 54.6666632,11.999992 55.36,13.6 C55.6533348,14.26667 55.833333,15.0133292 55.9,15.84 C55.966667,16.6666708 56,18.3733204 56,20.96 L56,26.76 C56,27.5866708 56.066666,28.0733326 56.2,28.22 C56.333334,28.3666674 56.766663,28.44 57.5,28.44 C58.233337,28.44 58.6,28.5466656 58.6,28.76 Z M74.72,2.64 L74.36,2.96 L72.8,4.36 L68.4,8.28 C67.8933308,8.7600024 67.573334,9 67.44,9 C67.3333328,9 67.28,8.9466672 67.28,8.84 C67.28,8.7599996 67.7066624,7.653344 68.56,5.52 L68.6,5.4 C68.8933348,4.6533296 69.239998,3.7333388 69.64,2.64 L74.72,2.64 Z M75.64,24.12 C75.64,24.7066696 75.2933368,25.4799952 74.6,26.44 C73.1066592,28.4933436 71.160012,29.52 68.76,29.52 C66.0666532,29.52 63.853342,28.6666752 62.12,26.96 C60.386658,25.2533248 59.52,23.06668 59.52,20.4 C59.52,17.7866536 60.3599916,15.6066754 62.04,13.86 C63.7200084,12.1133246 65.8133208,11.24 68.32,11.24 C70.0266752,11.24 71.479994,11.6133296 72.68,12.36 C74.01334,13.1866708 74.879998,14.3733256 75.28,15.92 C75.3866672,16.4000024 75.4666664,16.97333 75.52,17.64 C74.9066636,17.6933336 72.4400216,17.7333332 68.12,17.76 C67.45333,17.76 66.6133384,17.7866664 65.6,17.84 C65.5199996,18.8000048 65.48,19.61333 65.48,20.28 C65.48,23.4000156 66.1333268,25.6133268 67.44,26.92 C68.2133372,27.6933372 69.1599944,28.08 70.28,28.08 C71.213338,28.08 72.113329,27.7600032 72.98,27.12 C73.846671,26.4799968 74.5066644,25.6533384 74.96,24.64 C75.1733344,24.1333308 75.346666,23.88 75.48,23.88 C75.5866672,23.88 75.64,23.9599992 75.64,24.12 Z M70.6,17.16 C70.6266668,15.1066564 70.4800016,13.680004 70.16,12.88 C69.8399984,12.079996 69.280004,11.68 68.48,11.68 C66.8533252,11.68 65.9200012,13.5066484 65.68,17.16 C66.2400028,17.1333332 67.4133244,17.12 69.2,17.12 C69.733336,17.12 70.199998,17.1333332 70.6,17.16 Z M92.4,15.32 C92.4,15.9600032 92.2133352,16.479998 91.84,16.88 C91.4666648,17.280002 90.9866696,17.48 90.4,17.48 C88.9866596,17.48 88.28,16.8533396 88.28,15.6 C88.28,15.2799984 88.3666658,14.9000022 88.54,14.46 C88.7133342,14.0199978 88.8,13.7066676 88.8,13.52 C88.8,13.0133308 88.6066686,12.5800018 88.22,12.22 C87.8333314,11.8599982 87.3600028,11.68 86.8,11.68 C84.3733212,11.68 83.16,14.3866396 83.16,19.8 C83.16,22.8933488 83.693328,25.10666 84.76,26.44 C85.5866708,27.4533384 86.599994,27.96 87.8,27.96 C89.0533396,27.96 90.3333268,27.1466748 91.64,25.52 C91.8000008,25.3066656 91.946666,25.2 92.08,25.2 C92.1866672,25.2 92.24,25.2799992 92.24,25.44 C92.24,25.9466692 91.7600048,26.6533288 90.8,27.56 C89.4133264,28.8666732 87.7466764,29.52 85.8,29.52 C83.399988,29.52 81.3533418,28.6600086 79.66,26.94 C77.9666582,25.2199914 77.12,23.1333456 77.12,20.68 C77.12,18.01332 78.0133244,15.7666758 79.8,13.94 C81.5866756,12.1133242 83.7866536,11.2 86.4,11.2 C88.0800084,11.2 89.4999942,11.599996 90.66,12.4 C91.8200058,13.200004 92.4,14.1733276 92.4,15.32 Z M113.76,28.88 C113.76,29.0400008 113.640001,29.12 113.4,29.12 L112.6,29.12 C112.039997,29.0933332 111.573335,29.08 111.2,29.08 L110.2,29.08 C107.906655,29.08 106.493336,29.0533336 105.96,29 L105.32,29 L104.36,29.04 C104.013332,29.0666668 103.84,28.9733344 103.84,28.76 C103.84,28.5999992 103.906666,28.52 104.04,28.52 L104.96,28.56 C105.54667,28.5866668 105.88,28.4266684 105.96,28.08 C106.013334,27.8666656 106.04,26.5333456 106.04,24.08 L106.04,18.12 C106.04,15.6399876 105.920001,14.1733356 105.68,13.72 C105.333332,13.0266632 104.666672,12.68 103.68,12.68 C102.639995,12.68 101.840003,13.146662 101.28,14.08 C101.013332,14.5333356 100.88,15.5066592 100.88,17 L100.88,23.28 C100.88,25.2266764 100.893333,26.2933324 100.92,26.48 L100.92,26.96 L100.88,27.92 C100.853333,28.320002 101.413328,28.52 102.56,28.52 C102.800001,28.52 102.92,28.5999992 102.92,28.76 C102.92,28.9466676 102.746668,29.04 102.4,29.04 L102.08,29.04 C101.866666,29.0133332 101.546669,29 101.12,29 L99.36,29 L97.12,29.04 L94.76,29.12 L93.56,29.12 C93.159998,29.12 92.96,29.0400008 92.96,28.88 C92.96,28.7999996 92.9866664,28.7466668 93.04,28.72 C93.0933336,28.6933332 93.2133324,28.68 93.4,28.68 C94.4133384,28.68 95.0133324,28.6400004 95.2,28.56 C95.3866676,28.4799996 95.5066664,28.173336 95.56,27.64 C95.5866668,27.3199984 95.6,25.7200144 95.6,22.84 L95.6,8.16 C95.6,5.2799856 95.5400006,3.6200022 95.42,3.18 C95.2999994,2.7399978 94.7333384,2.52 93.72,2.52 C92.9466628,2.52 92.56,2.4400008 92.56,2.28 C92.56,2.1199992 93.0133288,2.0133336 93.92,1.96 C95.9733436,1.826666 97.9066576,1.4800028 99.72,0.92 C100.066668,0.8133328 100.319999,0.76 100.48,0.76 C100.693334,0.76 100.8,1.5066592 100.8,3 L100.8,5.92 C100.773333,6.7733376 100.76,7.3599984 100.76,7.68 L100.76,14.04 C101.533337,12.9466612 102.286663,12.200002 103.02,11.8 C103.753337,11.399998 104.74666,11.2 106,11.2 C108.640013,11.2 110.29333,12.266656 110.96,14.4 C111.200001,15.0933368 111.32,16.2133256 111.32,17.76 L111.32,27.08 C111.32,27.7733368 111.433332,28.1999992 111.66,28.36 C111.886668,28.5200008 112.453329,28.6 113.36,28.6 C113.626668,28.6 113.76,28.6933324 113.76,28.88 Z M130.96,24.12 C130.96,24.7066696 130.613337,25.4799952 129.92,26.44 C128.426659,28.4933436 126.480012,29.52 124.08,29.52 C121.386653,29.52 119.173342,28.6666752 117.44,26.96 C115.706658,25.2533248 114.84,23.06668 114.84,20.4 C114.84,17.7866536 115.679992,15.6066754 117.36,13.86 C119.040008,12.1133246 121.133321,11.24 123.64,11.24 C125.346675,11.24 126.799994,11.6133296 128,12.36 C129.33334,13.1866708 130.199998,14.3733256 130.6,15.92 C130.706667,16.4000024 130.786666,16.97333 130.84,17.64 C130.226664,17.6933336 127.760022,17.7333332 123.44,17.76 C122.77333,17.76 121.933338,17.7866664 120.92,17.84 C120.84,18.8000048 120.8,19.61333 120.8,20.28 C120.8,23.4000156 121.453327,25.6133268 122.76,26.92 C123.533337,27.6933372 124.479994,28.08 125.6,28.08 C126.533338,28.08 127.433329,27.7600032 128.3,27.12 C129.166671,26.4799968 129.826664,25.6533384 130.28,24.64 C130.493334,24.1333308 130.666666,23.88 130.8,23.88 C130.906667,23.88 130.96,23.9599992 130.96,24.12 Z M125.92,17.16 C125.946667,15.1066564 125.800002,13.680004 125.48,12.88 C125.159998,12.079996 124.600004,11.68 123.8,11.68 C122.173325,11.68 121.240001,13.5066484 121,17.16 C121.560003,17.1333332 122.733324,17.12 124.52,17.12 C125.053336,17.12 125.519998,17.1333332 125.92,17.16 Z M150.04,26.88 C150.04,27.0933344 149.826669,27.3866648 149.4,27.76 C148.253328,28.8000052 146.840008,29.32 145.16,29.32 C144.066661,29.32 143.273336,29.0933356 142.78,28.64 C142.286664,28.1866644 141.960001,27.3733392 141.8,26.2 C140.599994,28.3866776 138.96001,29.48 136.88,29.48 C135.733328,29.48 134.80667,29.1200036 134.1,28.4 C133.39333,27.6799964 133.04,26.7466724 133.04,25.6 C133.04,22.2399832 135.919971,20.2533364 141.68,19.64 L141.68,18.8 C141.68,16.13332 141.586668,14.4933364 141.4,13.88 L141.36,13.68 C140.986665,12.34666 140.040008,11.68 138.52,11.68 C137.639996,11.68 136.933336,11.9333308 136.4,12.44 C135.866664,12.9466692 135.6,13.4399976 135.6,13.92 C135.6,14.186668 135.919997,14.3466664 136.56,14.4 C137.520005,14.4800004 138,15.0666612 138,16.16 C138,16.7466696 137.806669,17.2333314 137.42,17.62 C137.033331,18.0066686 136.533336,18.2 135.92,18.2 C135.146663,18.2 134.513336,17.966669 134.02,17.5 C133.526664,17.033331 133.28,16.4400036 133.28,15.72 C133.28,14.5733276 133.853328,13.533338 135,12.6 C136.146672,11.666662 137.653324,11.2 139.52,11.2 C142.293347,11.2 144.226661,11.6933284 145.32,12.68 C146.200004,13.5066708 146.64,14.9466564 146.64,17 L146.64,23.84 C146.64,25.17334 146.653333,25.9466656 146.68,26.16 C146.813334,27.2800056 147.199997,27.84 147.84,27.84 C148.293336,27.84 148.85333,27.5200032 149.52,26.88 C149.653334,26.746666 149.76,26.68 149.84,26.68 C149.973334,26.68 150.04,26.746666 150.04,26.88 Z M141.68,22.12 L141.68,20.16 C139.09332,20.6666692 137.8,22.1333212 137.8,24.56 C137.8,26.426676 138.439994,27.36 139.72,27.36 C140.440004,27.36 140.946665,26.960004 141.24,26.16 C141.533335,25.359996 141.68,24.0133428 141.68,22.12 Z M171.52,27.72 C171.52,27.9333344 171.293336,28.0533332 170.84,28.08 C168.413321,28.1600004 166.733338,28.2866658 165.8,28.46 C164.866662,28.6333342 164.06667,28.9466644 163.4,29.4 C163.239999,29.5066672 163.093334,29.56 162.96,29.56 C162.853333,29.56 162.8,29.4533344 162.8,29.24 C162.8,28.8666648 162.813333,28.5666678 162.84,28.34 C162.866667,28.1133322 162.88,27.8400016 162.88,27.52 C162.88,27.2799988 162.866667,27.0666676 162.84,26.88 C161.159992,28.6400088 159.333343,29.52 157.36,29.52 C155.599991,29.52 154.213338,28.9600056 153.2,27.84 C152.559997,27.1466632 152.24,25.866676 152.24,24 L152.24,21.16 C152.24,20.8399984 152.253333,20.0533396 152.28,18.8 L152.28,13.6 C152.28,13.0133304 152.193334,12.653334 152.02,12.52 C151.846666,12.386666 151.360004,12.3066668 150.56,12.28 C149.866663,12.2533332 149.52,12.1466676 149.52,11.96 C149.52,11.7466656 149.706665,11.64 150.08,11.64 L150.52,11.64 C150.920002,11.64 151.526663,11.6599998 152.34,11.7 C153.153337,11.7400002 153.706665,11.76 154,11.76 C154.053334,11.76 154.326664,11.7466668 154.82,11.72 C155.313336,11.6933332 156.039995,11.68 157,11.68 L157.76,11.68 L157.76,16 C157.76,18.0533436 157.74,19.5599952 157.7,20.52 C157.66,21.4800048 157.64,21.893334 157.64,21.76 C157.64,24.560014 157.819998,26.3066632 158.18,27 C158.540002,27.6933368 159.106663,28.04 159.88,28.04 C160.760004,28.04 161.586663,27.5466716 162.36,26.56 C162.600001,26.2666652 162.74,25.9666682 162.78,25.66 C162.82,25.3533318 162.84,24.600006 162.84,23.4 L162.84,16.52 C162.84,14.5733236 162.813334,13.400002 162.76,13 C162.706666,12.4933308 162.373336,12.24 161.76,12.24 L160.64,12.24 C160.266665,12.24 160.08,12.1333344 160.08,11.92 C160.08,11.7599992 160.799993,11.68 162.24,11.68 C163.49334,11.68 165.479986,11.6666668 168.2,11.64 C168.173333,12.6533384 168.16,14.2799888 168.16,16.52 L168.16,24.64 C168.16,25.8933396 168.186666,26.6333322 168.24,26.86 C168.293334,27.0866678 168.493332,27.2399996 168.84,27.32 C169.080001,27.3733336 169.799994,27.4 171,27.4 C171.346668,27.4 171.52,27.5066656 171.52,27.72 Z" id="Sénécheau"></path>
                    <path d="M143.44,47 L142.64,47 L142.45,46.16 C142.116665,46.5400019 141.783335,46.8033326 141.45,46.95 C141.116665,47.0966674 140.733336,47.17 140.3,47.17 C139.766664,47.17 139.288335,47.0716676 138.865,46.875 C138.441665,46.6783323 138.083335,46.4100017 137.79,46.07 C137.496665,45.7299983 137.271667,45.3333356 137.115,44.88 C136.958333,44.4266644 136.88,43.9433359 136.88,43.43 C136.88,42.9233308 136.958333,42.4433356 137.115,41.99 C137.271667,41.5366644 137.496665,41.1400017 137.79,40.8 C138.083335,40.4599983 138.441665,40.190001 138.865,39.99 C139.288335,39.789999 139.766664,39.69 140.3,39.69 C140.686669,39.69 141.054998,39.7416661 141.405,39.845 C141.755002,39.9483338 142.066665,40.1016656 142.34,40.305 C142.613335,40.5083343 142.839999,40.7633318 143.02,41.07 C143.200001,41.3766682 143.313333,41.729998 143.36,42.13 L142.14,42.13 C142.106667,41.8966655 142.035001,41.6916675 141.925,41.515 C141.814999,41.3383324 141.676667,41.1900006 141.51,41.07 C141.343333,40.9499994 141.156668,40.8600003 140.95,40.8 C140.743332,40.7399997 140.526668,40.71 140.3,40.71 C139.919998,40.71 139.591668,40.7866659 139.315,40.94 C139.038332,41.0933341 138.813334,41.298332 138.64,41.555 C138.466666,41.8116679 138.338334,42.1033317 138.255,42.43 C138.171666,42.7566683 138.13,43.0899983 138.13,43.43 C138.13,43.7700017 138.171666,44.1033317 138.255,44.43 C138.338334,44.7566683 138.466666,45.048332 138.64,45.305 C138.813334,45.5616679 139.038332,45.7666659 139.315,45.92 C139.591668,46.0733341 139.919998,46.15 140.3,46.15 C140.620002,46.1566667 140.903332,46.1150004 141.15,46.025 C141.396668,45.9349995 141.604999,45.8050008 141.775,45.635 C141.945001,45.4649991 142.073333,45.2566679 142.16,45.01 C142.246667,44.7633321 142.293333,44.4900015 142.3,44.19 L140.4,44.19 L140.4,43.24 L143.44,43.24 L143.44,47 Z M144.64,41.83 L145.72,41.83 L145.72,42.55 L145.75,42.55 C145.836667,42.4233327 145.929999,42.3066672 146.03,42.2 C146.130001,42.0933328 146.241666,42.0033337 146.365,41.93 C146.488334,41.8566663 146.629999,41.7983335 146.79,41.755 C146.950001,41.7116664 147.133332,41.69 147.34,41.69 C147.653335,41.69 147.944999,41.7599993 148.215,41.9 C148.485001,42.0400007 148.676666,42.2566652 148.79,42.55 C148.983334,42.283332 149.206665,42.0733341 149.46,41.92 C149.713335,41.7666659 150.029998,41.69 150.41,41.69 C150.956669,41.69 151.381665,41.823332 151.685,42.09 C151.988335,42.356668 152.14,42.8033302 152.14,43.43 L152.14,47 L151,47 L151,43.98 C151,43.7733323 150.993333,43.5850008 150.98,43.415 C150.966667,43.2449991 150.928334,43.0983339 150.865,42.975 C150.801666,42.851666 150.706667,42.756667 150.58,42.69 C150.453333,42.623333 150.280001,42.59 150.06,42.59 C149.673331,42.59 149.393334,42.7099988 149.22,42.95 C149.046666,43.1900012 148.96,43.5299978 148.96,43.97 L148.96,47 L147.82,47 L147.82,43.68 C147.82,43.3199982 147.755001,43.0483342 147.625,42.865 C147.494999,42.6816657 147.256668,42.59 146.91,42.59 C146.763333,42.59 146.621667,42.6199997 146.485,42.68 C146.348333,42.7400003 146.228334,42.8266661 146.125,42.94 C146.021666,43.0533339 145.938334,43.1933325 145.875,43.36 C145.811666,43.5266675 145.78,43.7166656 145.78,43.93 L145.78,47 L144.64,47 L144.64,41.83 Z M154.75,42.85 L156.79,42.85 C157.090002,42.85 157.339999,42.7650008 157.54,42.595 C157.740001,42.4249991 157.84,42.1800016 157.84,41.86 C157.84,41.4999982 157.750001,41.2466674 157.57,41.1 C157.389999,40.9533326 157.130002,40.88 156.79,40.88 L154.75,40.88 L154.75,42.85 Z M153.5,39.86 L156.97,39.86 C157.610003,39.86 158.123331,40.0066652 158.51,40.3 C158.896669,40.5933348 159.09,41.0366637 159.09,41.63 C159.09,41.9900018 159.001668,42.298332 158.825,42.555 C158.648332,42.8116679 158.396668,43.0099993 158.07,43.15 L158.07,43.17 C158.510002,43.2633338 158.843332,43.471665 159.07,43.795 C159.296668,44.1183349 159.41,44.5233309 159.41,45.01 C159.41,45.2900014 159.360001,45.5516654 159.26,45.795 C159.159999,46.0383345 159.003334,46.2483324 158.79,46.425 C158.576666,46.6016675 158.303335,46.7416661 157.97,46.845 C157.636665,46.9483338 157.240002,47 156.78,47 L153.5,47 L153.5,39.86 Z M154.75,45.98 L156.96,45.98 C157.340002,45.98 157.634999,45.8816676 157.845,45.685 C158.055001,45.4883323 158.16,45.2100018 158.16,44.85 C158.16,44.4966649 158.055001,44.2250009 157.845,44.035 C157.634999,43.844999 157.340002,43.75 156.96,43.75 L154.75,43.75 L154.75,45.98 Z M160.51,39.86 L161.76,39.86 L161.76,42.7 L165.01,42.7 L165.01,39.86 L166.26,39.86 L166.26,47 L165.01,47 L165.01,43.78 L161.76,43.78 L161.76,47 L160.51,47 L160.51,39.86 Z" id="GmBH"></path>
                </g>
            </g>
        </g>
    </g>
</svg>