<?xml version="1.0" encoding="UTF-8"?>
<svg width="14px" height="36px" viewBox="0 0 14 36" version="1.1" xmlns="http://www.w3.org/2000/svg" xmlns:xlink="http://www.w3.org/1999/xlink">
    <!-- Generator: Sketch 52.4 (67378) - http://www.bohemiancoding.com/sketch -->
    <title>Shape</title>
    <desc>Created with Sketch.</desc>
    <g id="Page-1" stroke="none" stroke-width="1" fill="none" fill-rule="evenodd">
        <g id="A-Copy-2" transform="translate(-354.000000, -1053.000000)" fill="#000000" fill-rule="nonzero">
            <g id="Group-3" transform="translate(271.000000, 202.000000)">
                <g id="Mouse" transform="translate(83.000000, 851.000000)">
                    <path d="M7.0006611,12.8829239 C7.29658324,12.8829239 7.53896371,13.1235242 7.53896371,13.4218135 L7.53896371,16.6466868 C7.53896371,16.9435678 7.29658685,17.1841717 7.0006611,17.1841717 C6.70332846,17.1841717 6.4609516,16.9435714 6.4609516,16.6466868 L6.4609516,13.4218135 C6.4609516,13.1235278 6.70332846,12.8829239 7.0006611,12.8829239 Z M7.53896371,34.1723245 L9.31451095,32.3980697 C9.42301562,32.2911382 9.53011338,32.2376707 9.69217413,32.2376707 C9.85422768,32.2376707 9.96132183,32.2911382 10.0684304,32.3980697 C10.2840328,32.6133446 10.2840328,32.9355546 10.0684304,33.1508079 L7.37695346,35.839601 C7.2698557,35.9465361 7.13457659,36 7.00069718,36 C6.86541808,36 6.73013897,35.9465325 6.623034,35.839601 L3.93155704,33.1508079 C3.71595462,32.935533 3.71595462,32.613323 3.93155704,32.3980697 C4.0386512,32.2911382 4.14574896,32.2376707 4.30781332,32.2376707 C4.46986686,32.2376707 4.57696102,32.2911382 4.6854765,32.3980697 L6.46102374,34.1723245 L6.46102374,26.8614208 C6.46102374,26.5392144 6.67662617,26.3239359 7.00073325,26.3239359 C7.32342983,26.3239359 7.53903586,26.5392108 7.53903586,26.8614208 L7.53896371,34.1723245 Z M5.0306727,29.2153034 C5.30545883,29.318017 5.4492082,29.6233338 5.35477978,29.8962905 C5.25895889,30.1734723 4.95175628,30.3254283 4.66994285,30.229753 C4.05977999,30.0144781 2.63090799,29.4179066 1.48103562,27.9489902 C0.0817446525,26.1620925 0.00140690267,24.2458123 0,23.6349195 L0,13.4215542 C0.00140906714,12.8896884 0.0648221386,10.6019018 1.85866272,8.66876441 C3.88081475,6.48788405 6.54978127,6.43443092 6.99926863,6.43162139 C7.44597827,6.43162139 10.1304207,6.47805429 12.1553865,8.66876441 C13.9450028,10.6034146 13.9999802,12.8927861 13.9999802,13.4215542 L13.9999802,23.6349195 C14.0013893,24.2371316 13.9309302,26.0367082 12.6556306,27.7757358 C11.463479,29.3994285 9.91199005,30.0255577 9.33000131,30.2295729 C9.05098726,30.3252482 8.74238496,30.1761054 8.64516438,29.8975152 C8.54793298,29.618925 8.69871326,29.3107915 8.9763168,29.2123138 C9.49207289,29.0279942 10.7152124,28.5088145 11.6917472,27.2382581 C12.8416196,25.7440199 12.9191074,24.1582919 12.9219573,23.6348546 L12.9219573,13.4214894 C12.9219573,12.9909468 12.8768643,11.0014027 11.3014219,9.34406758 C9.59070038,7.54449099 7.37977087,7.50789505 6.99918566,7.50789505 C6.63140687,7.50789505 4.27105709,7.55714109 2.54615834,9.51008204 C0.99185556,11.2688484 1.0552744,13.3299635 1.07641402,13.7495922 L1.07641402,23.6351788 C1.08205065,24.1613895 1.16518958,25.6978788 2.26997252,27.1724142 C3.26061237,28.4964237 4.52181043,29.031099 5.03049593,29.2154115 L5.0306727,29.2153034 Z M5.92268506,1.07496975 C5.92268506,0.481222218 6.40601024,0 6.99929028,0 C7.59394114,0 8.07730239,0.481186198 8.07730239,1.07496975 C8.07730239,1.67012205 7.59397721,2.1499395 6.99929028,2.1499395 C6.40604632,2.1499395 5.92268506,1.67015807 5.92268506,1.07496975 Z M5.92268506,4.30124775 C5.92268506,3.70609545 6.40601024,3.226278 6.99929028,3.226278 C7.59394114,3.226278 8.07730239,3.70605943 8.07730239,4.30124775 C8.07730239,4.89499528 7.59397721,5.3762175 6.99929028,5.3762175 C6.40604632,5.3762175 5.92268506,4.8950313 5.92268506,4.30124775 Z" id="Shape"></path>
                </g>
            </g>
        </g>
    </g>
</svg>